<svg xmlns="http://www.w3.org/2000/svg" width="846" height="300" viewBox="0 0 846 300" role="img" aria-label="Daily contributions, last 30 days">
  <defs>
    <linearGradient id="accent" x1="0" y1="0" x2="1" y2="0">
      <stop offset="0%" stop-color="#26a641"/>
      <stop offset="100%" stop-color="#39d353"/>
    </linearGradient>
    <linearGradient id="fade" x1="0" y1="0" x2="0" y2="1">
      <stop offset="0%" stop-color="#26a641" stop-opacity="0.25"/>
      <stop offset="100%" stop-color="#39d353" stop-opacity="0"/>
    </linearGradient>
  </defs>
  <style>
    .l { stroke-dasharray: 1881; stroke-dashoffset: 1881;
      animation: draw 7s ease-in-out forwards; }
    .a { opacity: 0; animation: rise 1.6s ease-out 5.4s forwards; }
    .d { opacity: 0; animation: rise 0.8s ease-out 6.4s forwards; }
    .dot { opacity: 0; animation: rise 0.4s ease-out 7s forwards; }
    .ping { transform-origin: 806.0px 240.0px;
      animation: ping 2s ease-out 7.4s infinite; opacity: 0; }
    @keyframes draw { to { stroke-dashoffset: 0; } }
    @keyframes rise { to { opacity: 1; } }
    @keyframes ping {
      0% { opacity: 0.7; transform: scale(0.4); }
      70% { opacity: 0; transform: scale(2.4); }
      100% { opacity: 0; transform: scale(2.4); }
    }
    @media (prefers-reduced-motion: reduce) {
      .l { stroke-dasharray: none; stroke-dashoffset: 0; animation: none; }
      .a, .d, .dot { opacity: 1; animation: none; }
      .ping { animation: none; opacity: 0; }
    }
  </style>
  <rect x="0.5" y="0.5" width="845" height="299" rx="10" fill="#16161e" stroke="#262939"/>
  <g font-family="'Segoe UI', Ubuntu, Helvetica, Arial, sans-serif">
    <text x="32" y="44" fill="#626880" font-size="10" font-weight="600" letter-spacing="1.5">CONTRIBUTION ACTIVITY · LAST 30 DAYS</text>
    <line x1="40" y1="76.0" x2="806" y2="76.0" stroke="#262939" stroke-dasharray="2 4"/><text x="32" y="79.0" fill="#626880" font-size="9" text-anchor="end">29</text><line x1="40" y1="160.8" x2="806" y2="160.8" stroke="#262939" stroke-dasharray="2 4"/><text x="32" y="163.8" fill="#626880" font-size="9" text-anchor="end">14</text><line x1="40" y1="240.0" x2="806" y2="240.0" stroke="#262939" stroke-dasharray="2 4"/><text x="32" y="243.0" fill="#626880" font-size="9" text-anchor="end">0</text>
    <path class="a" d="M 40.0,166.5 C 44.4,172.1 57.6,188.2 66.4,200.4 C 75.2,212.7 84.0,233.4 92.8,240.0 C 101.6,240.0 110.4,240.0 119.2,240.0 C 128.0,230.6 136.9,191.9 145.7,183.4 C 154.5,175.0 163.3,183.4 172.1,189.1 C 180.9,194.8 189.7,224.9 198.5,217.4 C 207.3,209.8 216.1,140.1 224.9,143.9 C 233.7,147.6 242.5,224.0 251.3,240.0 C 260.1,240.0 268.9,240.0 277.7,240.0 C 286.5,240.0 295.3,240.0 304.1,240.0 C 312.9,240.0 321.7,240.0 330.6,240.0 C 339.4,234.3 348.2,221.1 357.0,206.1 C 365.8,191.0 374.6,154.2 383.4,149.5 C 392.2,144.8 401.0,175.0 409.8,177.8 C 418.6,180.6 427.4,156.1 436.2,166.5 C 445.0,176.9 453.8,227.7 462.6,240.0 C 471.4,240.0 480.2,240.0 489.0,240.0 C 497.8,232.5 506.6,201.4 515.4,194.8 C 524.3,188.2 533.1,200.4 541.9,200.4 C 550.7,200.4 559.5,191.0 568.3,194.8 C 577.1,198.5 585.9,240.0 594.7,223.0 C 603.5,205.1 612.3,84.5 621.1,87.3 C 629.9,90.1 638.7,214.6 647.5,240.0 C 656.3,240.0 665.1,240.0 673.9,240.0 C 682.7,234.3 691.5,233.4 700.3,206.1 C 709.1,178.7 718.0,86.4 726.8,76.0 C 735.6,65.6 744.4,142.0 753.2,143.9 C 762.0,145.7 770.8,71.3 779.6,87.3 C 788.4,103.3 801.6,214.6 806.0,240.0 L 806.0,240 L 40.0,240 Z" fill="url(#fade)"/>
    <path class="l" d="M 40.0,166.5 C 44.4,172.1 57.6,188.2 66.4,200.4 C 75.2,212.7 84.0,233.4 92.8,240.0 C 101.6,240.0 110.4,240.0 119.2,240.0 C 128.0,230.6 136.9,191.9 145.7,183.4 C 154.5,175.0 163.3,183.4 172.1,189.1 C 180.9,194.8 189.7,224.9 198.5,217.4 C 207.3,209.8 216.1,140.1 224.9,143.9 C 233.7,147.6 242.5,224.0 251.3,240.0 C 260.1,240.0 268.9,240.0 277.7,240.0 C 286.5,240.0 295.3,240.0 304.1,240.0 C 312.9,240.0 321.7,240.0 330.6,240.0 C 339.4,234.3 348.2,221.1 357.0,206.1 C 365.8,191.0 374.6,154.2 383.4,149.5 C 392.2,144.8 401.0,175.0 409.8,177.8 C 418.6,180.6 427.4,156.1 436.2,166.5 C 445.0,176.9 453.8,227.7 462.6,240.0 C 471.4,240.0 480.2,240.0 489.0,240.0 C 497.8,232.5 506.6,201.4 515.4,194.8 C 524.3,188.2 533.1,200.4 541.9,200.4 C 550.7,200.4 559.5,191.0 568.3,194.8 C 577.1,198.5 585.9,240.0 594.7,223.0 C 603.5,205.1 612.3,84.5 621.1,87.3 C 629.9,90.1 638.7,214.6 647.5,240.0 C 656.3,240.0 665.1,240.0 673.9,240.0 C 682.7,234.3 691.5,233.4 700.3,206.1 C 709.1,178.7 718.0,86.4 726.8,76.0 C 735.6,65.6 744.4,142.0 753.2,143.9 C 762.0,145.7 770.8,71.3 779.6,87.3 C 788.4,103.3 801.6,214.6 806.0,240.0" fill="none" stroke="url(#accent)" stroke-width="2.5"
      stroke-linejoin="round" stroke-linecap="round"/>
    <circle class="d" cx="40.0" cy="166.5" r="2.5" fill="#39d353"/><circle class="d" cx="66.4" cy="200.4" r="2.5" fill="#39d353"/><circle class="d" cx="92.8" cy="240.0" r="2.5" fill="#39d353"/><circle class="d" cx="119.2" cy="240.0" r="2.5" fill="#39d353"/><circle class="d" cx="145.7" cy="183.4" r="2.5" fill="#39d353"/><circle class="d" cx="172.1" cy="189.1" r="2.5" fill="#39d353"/><circle class="d" cx="198.5" cy="217.4" r="2.5" fill="#39d353"/><circle class="d" cx="224.9" cy="143.9" r="2.5" fill="#39d353"/><circle class="d" cx="251.3" cy="240.0" r="2.5" fill="#39d353"/><circle class="d" cx="277.7" cy="240.0" r="2.5" fill="#39d353"/><circle class="d" cx="304.1" cy="240.0" r="2.5" fill="#39d353"/><circle class="d" cx="330.6" cy="240.0" r="2.5" fill="#39d353"/><circle class="d" cx="357.0" cy="206.1" r="2.5" fill="#39d353"/><circle class="d" cx="383.4" cy="149.5" r="2.5" fill="#39d353"/><circle class="d" cx="409.8" cy="177.8" r="2.5" fill="#39d353"/><circle class="d" cx="436.2" cy="166.5" r="2.5" fill="#39d353"/><circle class="d" cx="462.6" cy="240.0" r="2.5" fill="#39d353"/><circle class="d" cx="489.0" cy="240.0" r="2.5" fill="#39d353"/><circle class="d" cx="515.4" cy="194.8" r="2.5" fill="#39d353"/><circle class="d" cx="541.9" cy="200.4" r="2.5" fill="#39d353"/><circle class="d" cx="568.3" cy="194.8" r="2.5" fill="#39d353"/><circle class="d" cx="594.7" cy="223.0" r="2.5" fill="#39d353"/><circle class="d" cx="621.1" cy="87.3" r="2.5" fill="#39d353"/><circle class="d" cx="647.5" cy="240.0" r="2.5" fill="#39d353"/><circle class="d" cx="673.9" cy="240.0" r="2.5" fill="#39d353"/><circle class="d" cx="700.3" cy="206.1" r="2.5" fill="#39d353"/><circle class="d" cx="726.8" cy="76.0" r="2.5" fill="#39d353"/><circle class="d" cx="753.2" cy="143.9" r="2.5" fill="#39d353"/><circle class="d" cx="779.6" cy="87.3" r="2.5" fill="#39d353"/>
    <circle class="ping" cx="806.0" cy="240.0" r="6" fill="none" stroke="#39d353" stroke-width="1.5"/>
    <circle class="dot" cx="806.0" cy="240.0" r="4" fill="#39d353" stroke="#16161e" stroke-width="2"/>
    <text x="40.0" y="260" fill="#626880" font-size="9" text-anchor="middle">25</text><text x="66.4" y="260" fill="#626880" font-size="9" text-anchor="middle">26</text><text x="92.8" y="260" fill="#626880" font-size="9" text-anchor="middle">27</text><text x="119.2" y="260" fill="#626880" font-size="9" text-anchor="middle">28</text><text x="145.7" y="260" fill="#626880" font-size="9" text-anchor="middle">29</text><text x="172.1" y="260" fill="#626880" font-size="9" text-anchor="middle">30</text><text x="198.5" y="260" fill="#626880" font-size="9" text-anchor="middle">1</text><text x="224.9" y="260" fill="#626880" font-size="9" text-anchor="middle">2</text><text x="251.3" y="260" fill="#626880" font-size="9" text-anchor="middle">3</text><text x="277.7" y="260" fill="#626880" font-size="9" text-anchor="middle">4</text><text x="304.1" y="260" fill="#626880" font-size="9" text-anchor="middle">5</text><text x="330.6" y="260" fill="#626880" font-size="9" text-anchor="middle">6</text><text x="357.0" y="260" fill="#626880" font-size="9" text-anchor="middle">7</text><text x="383.4" y="260" fill="#626880" font-size="9" text-anchor="middle">8</text><text x="409.8" y="260" fill="#626880" font-size="9" text-anchor="middle">9</text><text x="436.2" y="260" fill="#626880" font-size="9" text-anchor="middle">10</text><text x="462.6" y="260" fill="#626880" font-size="9" text-anchor="middle">11</text><text x="489.0" y="260" fill="#626880" font-size="9" text-anchor="middle">12</text><text x="515.4" y="260" fill="#626880" font-size="9" text-anchor="middle">13</text><text x="541.9" y="260" fill="#626880" font-size="9" text-anchor="middle">14</text><text x="568.3" y="260" fill="#626880" font-size="9" text-anchor="middle">15</text><text x="594.7" y="260" fill="#626880" font-size="9" text-anchor="middle">16</text><text x="621.1" y="260" fill="#626880" font-size="9" text-anchor="middle">17</text><text x="647.5" y="260" fill="#626880" font-size="9" text-anchor="middle">18</text><text x="673.9" y="260" fill="#626880" font-size="9" text-anchor="middle">19</text><text x="700.3" y="260" fill="#626880" font-size="9" text-anchor="middle">20</text><text x="726.8" y="260" fill="#626880" font-size="9" text-anchor="middle">21</text><text x="753.2" y="260" fill="#626880" font-size="9" text-anchor="middle">22</text><text x="779.6" y="260" fill="#626880" font-size="9" text-anchor="middle">23</text><text x="806.0" y="260" fill="#626880" font-size="9" text-anchor="middle">24</text>
  </g>
</svg>
