<svg xmlns="http://www.w3.org/2000/svg" width="846" height="300" viewBox="0 0 846 300" role="img" aria-label="Daily contributions, last 30 days">
  <defs>
    <linearGradient id="accent" x1="0" y1="0" x2="1" y2="0">
      <stop offset="0%" stop-color="#2da44e"/>
      <stop offset="100%" stop-color="#1a7f37"/>
    </linearGradient>
    <linearGradient id="fade" x1="0" y1="0" x2="0" y2="1">
      <stop offset="0%" stop-color="#2da44e" stop-opacity="0.25"/>
      <stop offset="100%" stop-color="#1a7f37" stop-opacity="0"/>
    </linearGradient>
  </defs>
  <style>
    .l { stroke-dasharray: 1640; stroke-dashoffset: 1640;
      animation: draw 7s ease-in-out forwards; }
    .a { opacity: 0; animation: rise 1.6s ease-out 5.4s forwards; }
    .d { opacity: 0; animation: rise 0.8s ease-out 6.4s forwards; }
    .dot { opacity: 0; animation: rise 0.4s ease-out 7s forwards; }
    .ping { transform-origin: 806.0px 215.7px;
      animation: ping 2s ease-out 7.4s infinite; opacity: 0; }
    @keyframes draw { to { stroke-dashoffset: 0; } }
    @keyframes rise { to { opacity: 1; } }
    @keyframes ping {
      0% { opacity: 0.7; transform: scale(0.4); }
      70% { opacity: 0; transform: scale(2.4); }
      100% { opacity: 0; transform: scale(2.4); }
    }
    @media (prefers-reduced-motion: reduce) {
      .l { stroke-dasharray: none; stroke-dashoffset: 0; animation: none; }
      .a, .d, .dot { opacity: 1; animation: none; }
      .ping { animation: none; opacity: 0; }
    }
  </style>
  <rect x="0.5" y="0.5" width="845" height="299" rx="10" fill="#ffffff" stroke="#e2e6f0"/>
  <g font-family="'Segoe UI', Ubuntu, Helvetica, Arial, sans-serif">
    <text x="32" y="44" fill="#8a91ab" font-size="10" font-weight="600" letter-spacing="1.5">CONTRIBUTION ACTIVITY · LAST 30 DAYS</text>
    <line x1="40" y1="76.0" x2="806" y2="76.0" stroke="#e2e6f0" stroke-dasharray="2 4"/><text x="32" y="79.0" fill="#8a91ab" font-size="9" text-anchor="end">27</text><line x1="40" y1="161.0" x2="806" y2="161.0" stroke="#e2e6f0" stroke-dasharray="2 4"/><text x="32" y="164.0" fill="#8a91ab" font-size="9" text-anchor="end">13</text><line x1="40" y1="240.0" x2="806" y2="240.0" stroke="#e2e6f0" stroke-dasharray="2 4"/><text x="32" y="243.0" fill="#8a91ab" font-size="9" text-anchor="end">0</text>
    <path class="a" d="M 40.0,203.6 C 44.4,196.5 57.6,162.0 66.4,161.0 C 75.2,160.0 84.0,184.3 92.8,197.5 C 101.6,210.6 110.4,232.9 119.2,240.0 C 128.0,240.0 136.9,240.0 145.7,240.0 C 154.5,229.9 163.3,188.4 172.1,179.3 C 180.9,170.1 189.7,179.3 198.5,185.3 C 207.3,191.4 216.1,223.8 224.9,215.7 C 233.7,207.6 242.5,132.7 251.3,136.7 C 260.1,140.8 268.9,222.8 277.7,240.0 C 286.5,240.0 295.3,240.0 304.1,240.0 C 312.9,240.0 321.7,240.0 330.6,240.0 C 339.4,240.0 348.2,240.0 357.0,240.0 C 365.8,233.9 374.6,219.8 383.4,203.6 C 392.2,187.4 401.0,147.9 409.8,142.8 C 418.6,137.8 427.4,170.1 436.2,173.2 C 445.0,176.2 453.8,149.9 462.6,161.0 C 471.4,172.2 480.2,226.8 489.0,240.0 C 497.8,240.0 506.6,240.0 515.4,240.0 C 524.3,231.9 533.1,198.5 541.9,191.4 C 550.7,184.3 559.5,197.5 568.3,197.5 C 577.1,197.5 585.9,187.4 594.7,191.4 C 603.5,195.5 612.3,240.0 621.1,221.8 C 629.9,202.5 638.7,73.0 647.5,76.0 C 656.3,79.0 665.1,212.7 673.9,240.0 C 682.7,240.0 691.5,240.0 700.3,240.0 C 709.1,233.9 718.0,209.6 726.8,203.6 C 735.6,197.5 744.4,199.5 753.2,203.6 C 762.0,207.6 770.8,225.8 779.6,227.9 C 788.4,229.9 801.6,217.7 806.0,215.7 L 806.0,240 L 40.0,240 Z" fill="url(#fade)"/>
    <path class="l" d="M 40.0,203.6 C 44.4,196.5 57.6,162.0 66.4,161.0 C 75.2,160.0 84.0,184.3 92.8,197.5 C 101.6,210.6 110.4,232.9 119.2,240.0 C 128.0,240.0 136.9,240.0 145.7,240.0 C 154.5,229.9 163.3,188.4 172.1,179.3 C 180.9,170.1 189.7,179.3 198.5,185.3 C 207.3,191.4 216.1,223.8 224.9,215.7 C 233.7,207.6 242.5,132.7 251.3,136.7 C 260.1,140.8 268.9,222.8 277.7,240.0 C 286.5,240.0 295.3,240.0 304.1,240.0 C 312.9,240.0 321.7,240.0 330.6,240.0 C 339.4,240.0 348.2,240.0 357.0,240.0 C 365.8,233.9 374.6,219.8 383.4,203.6 C 392.2,187.4 401.0,147.9 409.8,142.8 C 418.6,137.8 427.4,170.1 436.2,173.2 C 445.0,176.2 453.8,149.9 462.6,161.0 C 471.4,172.2 480.2,226.8 489.0,240.0 C 497.8,240.0 506.6,240.0 515.4,240.0 C 524.3,231.9 533.1,198.5 541.9,191.4 C 550.7,184.3 559.5,197.5 568.3,197.5 C 577.1,197.5 585.9,187.4 594.7,191.4 C 603.5,195.5 612.3,240.0 621.1,221.8 C 629.9,202.5 638.7,73.0 647.5,76.0 C 656.3,79.0 665.1,212.7 673.9,240.0 C 682.7,240.0 691.5,240.0 700.3,240.0 C 709.1,233.9 718.0,209.6 726.8,203.6 C 735.6,197.5 744.4,199.5 753.2,203.6 C 762.0,207.6 770.8,225.8 779.6,227.9 C 788.4,229.9 801.6,217.7 806.0,215.7" fill="none" stroke="url(#accent)" stroke-width="2.5"
      stroke-linejoin="round" stroke-linecap="round"/>
    <circle class="d" cx="40.0" cy="203.6" r="2.5" fill="#1a7f37"/><circle class="d" cx="66.4" cy="161.0" r="2.5" fill="#1a7f37"/><circle class="d" cx="92.8" cy="197.5" r="2.5" fill="#1a7f37"/><circle class="d" cx="119.2" cy="240.0" r="2.5" fill="#1a7f37"/><circle class="d" cx="145.7" cy="240.0" r="2.5" fill="#1a7f37"/><circle class="d" cx="172.1" cy="179.3" r="2.5" fill="#1a7f37"/><circle class="d" cx="198.5" cy="185.3" r="2.5" fill="#1a7f37"/><circle class="d" cx="224.9" cy="215.7" r="2.5" fill="#1a7f37"/><circle class="d" cx="251.3" cy="136.7" r="2.5" fill="#1a7f37"/><circle class="d" cx="277.7" cy="240.0" r="2.5" fill="#1a7f37"/><circle class="d" cx="304.1" cy="240.0" r="2.5" fill="#1a7f37"/><circle class="d" cx="330.6" cy="240.0" r="2.5" fill="#1a7f37"/><circle class="d" cx="357.0" cy="240.0" r="2.5" fill="#1a7f37"/><circle class="d" cx="383.4" cy="203.6" r="2.5" fill="#1a7f37"/><circle class="d" cx="409.8" cy="142.8" r="2.5" fill="#1a7f37"/><circle class="d" cx="436.2" cy="173.2" r="2.5" fill="#1a7f37"/><circle class="d" cx="462.6" cy="161.0" r="2.5" fill="#1a7f37"/><circle class="d" cx="489.0" cy="240.0" r="2.5" fill="#1a7f37"/><circle class="d" cx="515.4" cy="240.0" r="2.5" fill="#1a7f37"/><circle class="d" cx="541.9" cy="191.4" r="2.5" fill="#1a7f37"/><circle class="d" cx="568.3" cy="197.5" r="2.5" fill="#1a7f37"/><circle class="d" cx="594.7" cy="191.4" r="2.5" fill="#1a7f37"/><circle class="d" cx="621.1" cy="221.8" r="2.5" fill="#1a7f37"/><circle class="d" cx="647.5" cy="76.0" r="2.5" fill="#1a7f37"/><circle class="d" cx="673.9" cy="240.0" r="2.5" fill="#1a7f37"/><circle class="d" cx="700.3" cy="240.0" r="2.5" fill="#1a7f37"/><circle class="d" cx="726.8" cy="203.6" r="2.5" fill="#1a7f37"/><circle class="d" cx="753.2" cy="203.6" r="2.5" fill="#1a7f37"/><circle class="d" cx="779.6" cy="227.9" r="2.5" fill="#1a7f37"/>
    <circle class="ping" cx="806.0" cy="215.7" r="6" fill="none" stroke="#1a7f37" stroke-width="1.5"/>
    <circle class="dot" cx="806.0" cy="215.7" r="4" fill="#1a7f37" stroke="#ffffff" stroke-width="2"/>
    <text x="40.0" y="260" fill="#8a91ab" font-size="9" text-anchor="middle">24</text><text x="66.4" y="260" fill="#8a91ab" font-size="9" text-anchor="middle">25</text><text x="92.8" y="260" fill="#8a91ab" font-size="9" text-anchor="middle">26</text><text x="119.2" y="260" fill="#8a91ab" font-size="9" text-anchor="middle">27</text><text x="145.7" y="260" fill="#8a91ab" font-size="9" text-anchor="middle">28</text><text x="172.1" y="260" fill="#8a91ab" font-size="9" text-anchor="middle">29</text><text x="198.5" y="260" fill="#8a91ab" font-size="9" text-anchor="middle">30</text><text x="224.9" y="260" fill="#8a91ab" font-size="9" text-anchor="middle">1</text><text x="251.3" y="260" fill="#8a91ab" font-size="9" text-anchor="middle">2</text><text x="277.7" y="260" fill="#8a91ab" font-size="9" text-anchor="middle">3</text><text x="304.1" y="260" fill="#8a91ab" font-size="9" text-anchor="middle">4</text><text x="330.6" y="260" fill="#8a91ab" font-size="9" text-anchor="middle">5</text><text x="357.0" y="260" fill="#8a91ab" font-size="9" text-anchor="middle">6</text><text x="383.4" y="260" fill="#8a91ab" font-size="9" text-anchor="middle">7</text><text x="409.8" y="260" fill="#8a91ab" font-size="9" text-anchor="middle">8</text><text x="436.2" y="260" fill="#8a91ab" font-size="9" text-anchor="middle">9</text><text x="462.6" y="260" fill="#8a91ab" font-size="9" text-anchor="middle">10</text><text x="489.0" y="260" fill="#8a91ab" font-size="9" text-anchor="middle">11</text><text x="515.4" y="260" fill="#8a91ab" font-size="9" text-anchor="middle">12</text><text x="541.9" y="260" fill="#8a91ab" font-size="9" text-anchor="middle">13</text><text x="568.3" y="260" fill="#8a91ab" font-size="9" text-anchor="middle">14</text><text x="594.7" y="260" fill="#8a91ab" font-size="9" text-anchor="middle">15</text><text x="621.1" y="260" fill="#8a91ab" font-size="9" text-anchor="middle">16</text><text x="647.5" y="260" fill="#8a91ab" font-size="9" text-anchor="middle">17</text><text x="673.9" y="260" fill="#8a91ab" font-size="9" text-anchor="middle">18</text><text x="700.3" y="260" fill="#8a91ab" font-size="9" text-anchor="middle">19</text><text x="726.8" y="260" fill="#8a91ab" font-size="9" text-anchor="middle">20</text><text x="753.2" y="260" fill="#8a91ab" font-size="9" text-anchor="middle">21</text><text x="779.6" y="260" fill="#8a91ab" font-size="9" text-anchor="middle">22</text><text x="806.0" y="260" fill="#8a91ab" font-size="9" text-anchor="middle">23</text>
  </g>
</svg>
