<svg xmlns="http://www.w3.org/2000/svg" width="846" height="300" viewBox="0 0 846 300" role="img" aria-label="Daily contributions, last 30 days">
  <defs>
    <linearGradient id="accent" x1="0" y1="0" x2="1" y2="0">
      <stop offset="0%" stop-color="#26a641"/>
      <stop offset="100%" stop-color="#39d353"/>
    </linearGradient>
    <linearGradient id="fade" x1="0" y1="0" x2="0" y2="1">
      <stop offset="0%" stop-color="#26a641" stop-opacity="0.25"/>
      <stop offset="100%" stop-color="#39d353" stop-opacity="0"/>
    </linearGradient>
  </defs>
  <style>
    .l { stroke-dasharray: 1641; stroke-dashoffset: 1641;
      animation: draw 7s ease-in-out forwards; }
    .a { opacity: 0; animation: rise 1.6s ease-out 5.4s forwards; }
    .d { opacity: 0; animation: rise 0.8s ease-out 6.4s forwards; }
    .dot { opacity: 0; animation: rise 0.4s ease-out 7s forwards; }
    .ping { transform-origin: 806.0px 240.0px;
      animation: ping 2s ease-out 7.4s infinite; opacity: 0; }
    @keyframes draw { to { stroke-dashoffset: 0; } }
    @keyframes rise { to { opacity: 1; } }
    @keyframes ping {
      0% { opacity: 0.7; transform: scale(0.4); }
      70% { opacity: 0; transform: scale(2.4); }
      100% { opacity: 0; transform: scale(2.4); }
    }
    @media (prefers-reduced-motion: reduce) {
      .l { stroke-dasharray: none; stroke-dashoffset: 0; animation: none; }
      .a, .d, .dot { opacity: 1; animation: none; }
      .ping { animation: none; opacity: 0; }
    }
  </style>
  <rect x="0.5" y="0.5" width="845" height="299" rx="10" fill="#16161e" stroke="#262939"/>
  <g font-family="'Segoe UI', Ubuntu, Helvetica, Arial, sans-serif">
    <text x="32" y="44" fill="#626880" font-size="10" font-weight="600" letter-spacing="1.5">CONTRIBUTION ACTIVITY · LAST 30 DAYS</text>
    <line x1="40" y1="76.0" x2="806" y2="76.0" stroke="#262939" stroke-dasharray="2 4"/><text x="32" y="79.0" fill="#626880" font-size="9" text-anchor="end">26</text><line x1="40" y1="158.0" x2="806" y2="158.0" stroke="#262939" stroke-dasharray="2 4"/><text x="32" y="161.0" fill="#626880" font-size="9" text-anchor="end">13</text><line x1="40" y1="240.0" x2="806" y2="240.0" stroke="#262939" stroke-dasharray="2 4"/><text x="32" y="243.0" fill="#626880" font-size="9" text-anchor="end">0</text>
    <path class="a" d="M 40.0,214.8 C 44.4,215.8 57.6,223.2 66.4,221.1 C 75.2,219.0 84.0,212.7 92.8,202.2 C 101.6,191.6 110.4,159.1 119.2,158.0 C 128.0,156.9 136.9,182.2 145.7,195.8 C 154.5,209.5 163.3,232.6 172.1,240.0 C 180.9,240.0 189.7,240.0 198.5,240.0 C 207.3,229.5 216.1,186.4 224.9,176.9 C 233.7,167.5 242.5,176.9 251.3,183.2 C 260.1,189.5 268.9,223.2 277.7,214.8 C 286.5,206.4 295.3,128.6 304.1,132.8 C 312.9,137.0 321.7,222.1 330.6,240.0 C 339.4,240.0 348.2,240.0 357.0,240.0 C 365.8,240.0 374.6,240.0 383.4,240.0 C 392.2,240.0 401.0,240.0 409.8,240.0 C 418.6,233.7 427.4,219.0 436.2,202.2 C 445.0,185.3 453.8,144.3 462.6,139.1 C 471.4,133.8 480.2,167.5 489.0,170.6 C 497.8,173.8 506.6,146.4 515.4,158.0 C 524.3,169.6 533.1,226.3 541.9,240.0 C 550.7,240.0 559.5,240.0 568.3,240.0 C 577.1,231.6 585.9,196.9 594.7,189.5 C 603.5,182.2 612.3,195.8 621.1,195.8 C 629.9,195.8 638.7,185.3 647.5,189.5 C 656.3,193.7 665.1,240.0 673.9,221.1 C 682.7,202.2 691.5,72.8 700.3,76.0 C 709.1,79.2 718.0,212.7 726.8,240.0 C 735.6,240.0 744.4,240.0 753.2,240.0 C 762.0,238.9 770.8,233.7 779.6,233.7 C 788.4,233.7 801.6,238.9 806.0,240.0 L 806.0,240 L 40.0,240 Z" fill="url(#fade)"/>
    <path class="l" d="M 40.0,214.8 C 44.4,215.8 57.6,223.2 66.4,221.1 C 75.2,219.0 84.0,212.7 92.8,202.2 C 101.6,191.6 110.4,159.1 119.2,158.0 C 128.0,156.9 136.9,182.2 145.7,195.8 C 154.5,209.5 163.3,232.6 172.1,240.0 C 180.9,240.0 189.7,240.0 198.5,240.0 C 207.3,229.5 216.1,186.4 224.9,176.9 C 233.7,167.5 242.5,176.9 251.3,183.2 C 260.1,189.5 268.9,223.2 277.7,214.8 C 286.5,206.4 295.3,128.6 304.1,132.8 C 312.9,137.0 321.7,222.1 330.6,240.0 C 339.4,240.0 348.2,240.0 357.0,240.0 C 365.8,240.0 374.6,240.0 383.4,240.0 C 392.2,240.0 401.0,240.0 409.8,240.0 C 418.6,233.7 427.4,219.0 436.2,202.2 C 445.0,185.3 453.8,144.3 462.6,139.1 C 471.4,133.8 480.2,167.5 489.0,170.6 C 497.8,173.8 506.6,146.4 515.4,158.0 C 524.3,169.6 533.1,226.3 541.9,240.0 C 550.7,240.0 559.5,240.0 568.3,240.0 C 577.1,231.6 585.9,196.9 594.7,189.5 C 603.5,182.2 612.3,195.8 621.1,195.8 C 629.9,195.8 638.7,185.3 647.5,189.5 C 656.3,193.7 665.1,240.0 673.9,221.1 C 682.7,202.2 691.5,72.8 700.3,76.0 C 709.1,79.2 718.0,212.7 726.8,240.0 C 735.6,240.0 744.4,240.0 753.2,240.0 C 762.0,238.9 770.8,233.7 779.6,233.7 C 788.4,233.7 801.6,238.9 806.0,240.0" fill="none" stroke="url(#accent)" stroke-width="2.5"
      stroke-linejoin="round" stroke-linecap="round"/>
    <circle class="d" cx="40.0" cy="214.8" r="2.5" fill="#39d353"/><circle class="d" cx="66.4" cy="221.1" r="2.5" fill="#39d353"/><circle class="d" cx="92.8" cy="202.2" r="2.5" fill="#39d353"/><circle class="d" cx="119.2" cy="158.0" r="2.5" fill="#39d353"/><circle class="d" cx="145.7" cy="195.8" r="2.5" fill="#39d353"/><circle class="d" cx="172.1" cy="240.0" r="2.5" fill="#39d353"/><circle class="d" cx="198.5" cy="240.0" r="2.5" fill="#39d353"/><circle class="d" cx="224.9" cy="176.9" r="2.5" fill="#39d353"/><circle class="d" cx="251.3" cy="183.2" r="2.5" fill="#39d353"/><circle class="d" cx="277.7" cy="214.8" r="2.5" fill="#39d353"/><circle class="d" cx="304.1" cy="132.8" r="2.5" fill="#39d353"/><circle class="d" cx="330.6" cy="240.0" r="2.5" fill="#39d353"/><circle class="d" cx="357.0" cy="240.0" r="2.5" fill="#39d353"/><circle class="d" cx="383.4" cy="240.0" r="2.5" fill="#39d353"/><circle class="d" cx="409.8" cy="240.0" r="2.5" fill="#39d353"/><circle class="d" cx="436.2" cy="202.2" r="2.5" fill="#39d353"/><circle class="d" cx="462.6" cy="139.1" r="2.5" fill="#39d353"/><circle class="d" cx="489.0" cy="170.6" r="2.5" fill="#39d353"/><circle class="d" cx="515.4" cy="158.0" r="2.5" fill="#39d353"/><circle class="d" cx="541.9" cy="240.0" r="2.5" fill="#39d353"/><circle class="d" cx="568.3" cy="240.0" r="2.5" fill="#39d353"/><circle class="d" cx="594.7" cy="189.5" r="2.5" fill="#39d353"/><circle class="d" cx="621.1" cy="195.8" r="2.5" fill="#39d353"/><circle class="d" cx="647.5" cy="189.5" r="2.5" fill="#39d353"/><circle class="d" cx="673.9" cy="221.1" r="2.5" fill="#39d353"/><circle class="d" cx="700.3" cy="76.0" r="2.5" fill="#39d353"/><circle class="d" cx="726.8" cy="240.0" r="2.5" fill="#39d353"/><circle class="d" cx="753.2" cy="240.0" r="2.5" fill="#39d353"/><circle class="d" cx="779.6" cy="233.7" r="2.5" fill="#39d353"/>
    <circle class="ping" cx="806.0" cy="240.0" r="6" fill="none" stroke="#39d353" stroke-width="1.5"/>
    <circle class="dot" cx="806.0" cy="240.0" r="4" fill="#39d353" stroke="#16161e" stroke-width="2"/>
    <text x="40.0" y="260" fill="#626880" font-size="9" text-anchor="middle">22</text><text x="66.4" y="260" fill="#626880" font-size="9" text-anchor="middle">23</text><text x="92.8" y="260" fill="#626880" font-size="9" text-anchor="middle">24</text><text x="119.2" y="260" fill="#626880" font-size="9" text-anchor="middle">25</text><text x="145.7" y="260" fill="#626880" font-size="9" text-anchor="middle">26</text><text x="172.1" y="260" fill="#626880" font-size="9" text-anchor="middle">27</text><text x="198.5" y="260" fill="#626880" font-size="9" text-anchor="middle">28</text><text x="224.9" y="260" fill="#626880" font-size="9" text-anchor="middle">29</text><text x="251.3" y="260" fill="#626880" font-size="9" text-anchor="middle">30</text><text x="277.7" y="260" fill="#626880" font-size="9" text-anchor="middle">1</text><text x="304.1" y="260" fill="#626880" font-size="9" text-anchor="middle">2</text><text x="330.6" y="260" fill="#626880" font-size="9" text-anchor="middle">3</text><text x="357.0" y="260" fill="#626880" font-size="9" text-anchor="middle">4</text><text x="383.4" y="260" fill="#626880" font-size="9" text-anchor="middle">5</text><text x="409.8" y="260" fill="#626880" font-size="9" text-anchor="middle">6</text><text x="436.2" y="260" fill="#626880" font-size="9" text-anchor="middle">7</text><text x="462.6" y="260" fill="#626880" font-size="9" text-anchor="middle">8</text><text x="489.0" y="260" fill="#626880" font-size="9" text-anchor="middle">9</text><text x="515.4" y="260" fill="#626880" font-size="9" text-anchor="middle">10</text><text x="541.9" y="260" fill="#626880" font-size="9" text-anchor="middle">11</text><text x="568.3" y="260" fill="#626880" font-size="9" text-anchor="middle">12</text><text x="594.7" y="260" fill="#626880" font-size="9" text-anchor="middle">13</text><text x="621.1" y="260" fill="#626880" font-size="9" text-anchor="middle">14</text><text x="647.5" y="260" fill="#626880" font-size="9" text-anchor="middle">15</text><text x="673.9" y="260" fill="#626880" font-size="9" text-anchor="middle">16</text><text x="700.3" y="260" fill="#626880" font-size="9" text-anchor="middle">17</text><text x="726.8" y="260" fill="#626880" font-size="9" text-anchor="middle">18</text><text x="753.2" y="260" fill="#626880" font-size="9" text-anchor="middle">19</text><text x="779.6" y="260" fill="#626880" font-size="9" text-anchor="middle">20</text><text x="806.0" y="260" fill="#626880" font-size="9" text-anchor="middle">21</text>
  </g>
</svg>
