<svg xmlns="http://www.w3.org/2000/svg" width="846" height="300" viewBox="0 0 846 300" role="img" aria-label="Daily contributions, last 30 days">
  <defs>
    <linearGradient id="accent" x1="0" y1="0" x2="1" y2="0">
      <stop offset="0%" stop-color="#2da44e"/>
      <stop offset="100%" stop-color="#1a7f37"/>
    </linearGradient>
    <linearGradient id="fade" x1="0" y1="0" x2="0" y2="1">
      <stop offset="0%" stop-color="#2da44e" stop-opacity="0.25"/>
      <stop offset="100%" stop-color="#1a7f37" stop-opacity="0"/>
    </linearGradient>
  </defs>
  <style>
    .l { stroke-dasharray: 1776; stroke-dashoffset: 1776;
      animation: draw 7s ease-in-out forwards; }
    .a { opacity: 0; animation: rise 1.6s ease-out 5.4s forwards; }
    .d { opacity: 0; animation: rise 0.8s ease-out 6.4s forwards; }
    .dot { opacity: 0; animation: rise 0.4s ease-out 7s forwards; }
    .ping { transform-origin: 806.0px 240.0px;
      animation: ping 2s ease-out 7.4s infinite; opacity: 0; }
    @keyframes draw { to { stroke-dashoffset: 0; } }
    @keyframes rise { to { opacity: 1; } }
    @keyframes ping {
      0% { opacity: 0.7; transform: scale(0.4); }
      70% { opacity: 0; transform: scale(2.4); }
      100% { opacity: 0; transform: scale(2.4); }
    }
    @media (prefers-reduced-motion: reduce) {
      .l { stroke-dasharray: none; stroke-dashoffset: 0; animation: none; }
      .a, .d, .dot { opacity: 1; animation: none; }
      .ping { animation: none; opacity: 0; }
    }
  </style>
  <rect x="0.5" y="0.5" width="845" height="299" rx="10" fill="#ffffff" stroke="#e2e6f0"/>
  <g font-family="'Segoe UI', Ubuntu, Helvetica, Arial, sans-serif">
    <text x="32" y="44" fill="#8a91ab" font-size="10" font-weight="600" letter-spacing="1.5">CONTRIBUTION ACTIVITY · LAST 30 DAYS</text>
    <line x1="40" y1="76.0" x2="806" y2="76.0" stroke="#e2e6f0" stroke-dasharray="2 4"/><text x="32" y="79.0" fill="#8a91ab" font-size="9" text-anchor="end">29</text><line x1="40" y1="160.8" x2="806" y2="160.8" stroke="#e2e6f0" stroke-dasharray="2 4"/><text x="32" y="163.8" fill="#8a91ab" font-size="9" text-anchor="end">14</text><line x1="40" y1="240.0" x2="806" y2="240.0" stroke="#e2e6f0" stroke-dasharray="2 4"/><text x="32" y="243.0" fill="#8a91ab" font-size="9" text-anchor="end">0</text>
    <path class="a" d="M 40.0,217.4 C 44.4,205.1 57.6,140.1 66.4,143.9 C 75.2,147.6 84.0,224.0 92.8,240.0 C 101.6,240.0 110.4,240.0 119.2,240.0 C 128.0,240.0 136.9,240.0 145.7,240.0 C 154.5,240.0 163.3,240.0 172.1,240.0 C 180.9,234.3 189.7,221.1 198.5,206.1 C 207.3,191.0 216.1,154.2 224.9,149.5 C 233.7,144.8 242.5,175.0 251.3,177.8 C 260.1,180.6 268.9,156.1 277.7,166.5 C 286.5,176.9 295.3,227.7 304.1,240.0 C 312.9,240.0 321.7,240.0 330.6,240.0 C 339.4,232.5 348.2,201.4 357.0,194.8 C 365.8,188.2 374.6,200.4 383.4,200.4 C 392.2,200.4 401.0,191.0 409.8,194.8 C 418.6,198.5 427.4,240.0 436.2,223.0 C 445.0,205.1 453.8,84.5 462.6,87.3 C 471.4,90.1 480.2,214.6 489.0,240.0 C 497.8,240.0 506.6,240.0 515.4,240.0 C 524.3,234.3 533.1,233.4 541.9,206.1 C 550.7,178.7 559.5,86.4 568.3,76.0 C 577.1,65.6 585.9,142.0 594.7,143.9 C 603.5,145.7 612.3,75.1 621.1,87.3 C 629.9,99.6 638.7,191.9 647.5,217.4 C 656.3,240.0 665.1,236.2 673.9,240.0 C 682.7,240.0 691.5,240.0 700.3,240.0 C 709.1,240.0 718.0,240.0 726.8,240.0 C 735.6,240.0 744.4,240.0 753.2,240.0 C 762.0,238.1 770.8,228.7 779.6,228.7 C 788.4,228.7 801.6,238.1 806.0,240.0 L 806.0,240 L 40.0,240 Z" fill="url(#fade)"/>
    <path class="l" d="M 40.0,217.4 C 44.4,205.1 57.6,140.1 66.4,143.9 C 75.2,147.6 84.0,224.0 92.8,240.0 C 101.6,240.0 110.4,240.0 119.2,240.0 C 128.0,240.0 136.9,240.0 145.7,240.0 C 154.5,240.0 163.3,240.0 172.1,240.0 C 180.9,234.3 189.7,221.1 198.5,206.1 C 207.3,191.0 216.1,154.2 224.9,149.5 C 233.7,144.8 242.5,175.0 251.3,177.8 C 260.1,180.6 268.9,156.1 277.7,166.5 C 286.5,176.9 295.3,227.7 304.1,240.0 C 312.9,240.0 321.7,240.0 330.6,240.0 C 339.4,232.5 348.2,201.4 357.0,194.8 C 365.8,188.2 374.6,200.4 383.4,200.4 C 392.2,200.4 401.0,191.0 409.8,194.8 C 418.6,198.5 427.4,240.0 436.2,223.0 C 445.0,205.1 453.8,84.5 462.6,87.3 C 471.4,90.1 480.2,214.6 489.0,240.0 C 497.8,240.0 506.6,240.0 515.4,240.0 C 524.3,234.3 533.1,233.4 541.9,206.1 C 550.7,178.7 559.5,86.4 568.3,76.0 C 577.1,65.6 585.9,142.0 594.7,143.9 C 603.5,145.7 612.3,75.1 621.1,87.3 C 629.9,99.6 638.7,191.9 647.5,217.4 C 656.3,240.0 665.1,236.2 673.9,240.0 C 682.7,240.0 691.5,240.0 700.3,240.0 C 709.1,240.0 718.0,240.0 726.8,240.0 C 735.6,240.0 744.4,240.0 753.2,240.0 C 762.0,238.1 770.8,228.7 779.6,228.7 C 788.4,228.7 801.6,238.1 806.0,240.0" fill="none" stroke="url(#accent)" stroke-width="2.5"
      stroke-linejoin="round" stroke-linecap="round"/>
    <circle class="d" cx="40.0" cy="217.4" r="2.5" fill="#1a7f37"/><circle class="d" cx="66.4" cy="143.9" r="2.5" fill="#1a7f37"/><circle class="d" cx="92.8" cy="240.0" r="2.5" fill="#1a7f37"/><circle class="d" cx="119.2" cy="240.0" r="2.5" fill="#1a7f37"/><circle class="d" cx="145.7" cy="240.0" r="2.5" fill="#1a7f37"/><circle class="d" cx="172.1" cy="240.0" r="2.5" fill="#1a7f37"/><circle class="d" cx="198.5" cy="206.1" r="2.5" fill="#1a7f37"/><circle class="d" cx="224.9" cy="149.5" r="2.5" fill="#1a7f37"/><circle class="d" cx="251.3" cy="177.8" r="2.5" fill="#1a7f37"/><circle class="d" cx="277.7" cy="166.5" r="2.5" fill="#1a7f37"/><circle class="d" cx="304.1" cy="240.0" r="2.5" fill="#1a7f37"/><circle class="d" cx="330.6" cy="240.0" r="2.5" fill="#1a7f37"/><circle class="d" cx="357.0" cy="194.8" r="2.5" fill="#1a7f37"/><circle class="d" cx="383.4" cy="200.4" r="2.5" fill="#1a7f37"/><circle class="d" cx="409.8" cy="194.8" r="2.5" fill="#1a7f37"/><circle class="d" cx="436.2" cy="223.0" r="2.5" fill="#1a7f37"/><circle class="d" cx="462.6" cy="87.3" r="2.5" fill="#1a7f37"/><circle class="d" cx="489.0" cy="240.0" r="2.5" fill="#1a7f37"/><circle class="d" cx="515.4" cy="240.0" r="2.5" fill="#1a7f37"/><circle class="d" cx="541.9" cy="206.1" r="2.5" fill="#1a7f37"/><circle class="d" cx="568.3" cy="76.0" r="2.5" fill="#1a7f37"/><circle class="d" cx="594.7" cy="143.9" r="2.5" fill="#1a7f37"/><circle class="d" cx="621.1" cy="87.3" r="2.5" fill="#1a7f37"/><circle class="d" cx="647.5" cy="217.4" r="2.5" fill="#1a7f37"/><circle class="d" cx="673.9" cy="240.0" r="2.5" fill="#1a7f37"/><circle class="d" cx="700.3" cy="240.0" r="2.5" fill="#1a7f37"/><circle class="d" cx="726.8" cy="240.0" r="2.5" fill="#1a7f37"/><circle class="d" cx="753.2" cy="240.0" r="2.5" fill="#1a7f37"/><circle class="d" cx="779.6" cy="228.7" r="2.5" fill="#1a7f37"/>
    <circle class="ping" cx="806.0" cy="240.0" r="6" fill="none" stroke="#1a7f37" stroke-width="1.5"/>
    <circle class="dot" cx="806.0" cy="240.0" r="4" fill="#1a7f37" stroke="#ffffff" stroke-width="2"/>
    <text x="40.0" y="260" fill="#8a91ab" font-size="9" text-anchor="middle">1</text><text x="66.4" y="260" fill="#8a91ab" font-size="9" text-anchor="middle">2</text><text x="92.8" y="260" fill="#8a91ab" font-size="9" text-anchor="middle">3</text><text x="119.2" y="260" fill="#8a91ab" font-size="9" text-anchor="middle">4</text><text x="145.7" y="260" fill="#8a91ab" font-size="9" text-anchor="middle">5</text><text x="172.1" y="260" fill="#8a91ab" font-size="9" text-anchor="middle">6</text><text x="198.5" y="260" fill="#8a91ab" font-size="9" text-anchor="middle">7</text><text x="224.9" y="260" fill="#8a91ab" font-size="9" text-anchor="middle">8</text><text x="251.3" y="260" fill="#8a91ab" font-size="9" text-anchor="middle">9</text><text x="277.7" y="260" fill="#8a91ab" font-size="9" text-anchor="middle">10</text><text x="304.1" y="260" fill="#8a91ab" font-size="9" text-anchor="middle">11</text><text x="330.6" y="260" fill="#8a91ab" font-size="9" text-anchor="middle">12</text><text x="357.0" y="260" fill="#8a91ab" font-size="9" text-anchor="middle">13</text><text x="383.4" y="260" fill="#8a91ab" font-size="9" text-anchor="middle">14</text><text x="409.8" y="260" fill="#8a91ab" font-size="9" text-anchor="middle">15</text><text x="436.2" y="260" fill="#8a91ab" font-size="9" text-anchor="middle">16</text><text x="462.6" y="260" fill="#8a91ab" font-size="9" text-anchor="middle">17</text><text x="489.0" y="260" fill="#8a91ab" font-size="9" text-anchor="middle">18</text><text x="515.4" y="260" fill="#8a91ab" font-size="9" text-anchor="middle">19</text><text x="541.9" y="260" fill="#8a91ab" font-size="9" text-anchor="middle">20</text><text x="568.3" y="260" fill="#8a91ab" font-size="9" text-anchor="middle">21</text><text x="594.7" y="260" fill="#8a91ab" font-size="9" text-anchor="middle">22</text><text x="621.1" y="260" fill="#8a91ab" font-size="9" text-anchor="middle">23</text><text x="647.5" y="260" fill="#8a91ab" font-size="9" text-anchor="middle">24</text><text x="673.9" y="260" fill="#8a91ab" font-size="9" text-anchor="middle">25</text><text x="700.3" y="260" fill="#8a91ab" font-size="9" text-anchor="middle">26</text><text x="726.8" y="260" fill="#8a91ab" font-size="9" text-anchor="middle">27</text><text x="753.2" y="260" fill="#8a91ab" font-size="9" text-anchor="middle">28</text><text x="779.6" y="260" fill="#8a91ab" font-size="9" text-anchor="middle">29</text><text x="806.0" y="260" fill="#8a91ab" font-size="9" text-anchor="middle">30</text>
  </g>
</svg>
