<svg xmlns="http://www.w3.org/2000/svg" width="846" height="300" viewBox="0 0 846 300" role="img" aria-label="Daily contributions, last 30 days">
  <defs>
    <linearGradient id="accent" x1="0" y1="0" x2="1" y2="0">
      <stop offset="0%" stop-color="#26a641"/>
      <stop offset="100%" stop-color="#39d353"/>
    </linearGradient>
    <linearGradient id="fade" x1="0" y1="0" x2="0" y2="1">
      <stop offset="0%" stop-color="#26a641" stop-opacity="0.25"/>
      <stop offset="100%" stop-color="#39d353" stop-opacity="0"/>
    </linearGradient>
  </defs>
  <style>
    .l { stroke-dasharray: 1651; stroke-dashoffset: 1651;
      animation: draw 7s ease-in-out forwards; }
    .a { opacity: 0; animation: rise 1.6s ease-out 5.4s forwards; }
    .d { opacity: 0; animation: rise 0.8s ease-out 6.4s forwards; }
    .dot { opacity: 0; animation: rise 0.4s ease-out 7s forwards; }
    .ping { transform-origin: 806.0px 240.0px;
      animation: ping 2s ease-out 7.4s infinite; opacity: 0; }
    @keyframes draw { to { stroke-dashoffset: 0; } }
    @keyframes rise { to { opacity: 1; } }
    @keyframes ping {
      0% { opacity: 0.7; transform: scale(0.4); }
      70% { opacity: 0; transform: scale(2.4); }
      100% { opacity: 0; transform: scale(2.4); }
    }
    @media (prefers-reduced-motion: reduce) {
      .l { stroke-dasharray: none; stroke-dashoffset: 0; animation: none; }
      .a, .d, .dot { opacity: 1; animation: none; }
      .ping { animation: none; opacity: 0; }
    }
  </style>
  <rect x="0.5" y="0.5" width="845" height="299" rx="10" fill="#16161e" stroke="#262939"/>
  <g font-family="'Segoe UI', Ubuntu, Helvetica, Arial, sans-serif">
    <text x="32" y="44" fill="#626880" font-size="10" font-weight="600" letter-spacing="1.5">CONTRIBUTION ACTIVITY · LAST 30 DAYS</text>
    <line x1="40" y1="76.0" x2="806" y2="76.0" stroke="#262939" stroke-dasharray="2 4"/><text x="32" y="79.0" fill="#626880" font-size="9" text-anchor="end">26</text><line x1="40" y1="158.0" x2="806" y2="158.0" stroke="#262939" stroke-dasharray="2 4"/><text x="32" y="161.0" fill="#626880" font-size="9" text-anchor="end">13</text><line x1="40" y1="240.0" x2="806" y2="240.0" stroke="#262939" stroke-dasharray="2 4"/><text x="32" y="243.0" fill="#626880" font-size="9" text-anchor="end">0</text>
    <path class="a" d="M 40.0,240.0 C 44.4,240.0 57.6,240.0 66.4,240.0 C 75.2,235.8 84.0,217.9 92.8,214.8 C 101.6,211.6 110.4,223.2 119.2,221.1 C 128.0,219.0 136.9,212.7 145.7,202.2 C 154.5,191.6 163.3,159.1 172.1,158.0 C 180.9,156.9 189.7,182.2 198.5,195.8 C 207.3,209.5 216.1,232.6 224.9,240.0 C 233.7,240.0 242.5,240.0 251.3,240.0 C 260.1,229.5 268.9,186.4 277.7,176.9 C 286.5,167.5 295.3,176.9 304.1,183.2 C 312.9,189.5 321.7,223.2 330.6,214.8 C 339.4,206.4 348.2,128.6 357.0,132.8 C 365.8,137.0 374.6,222.1 383.4,240.0 C 392.2,240.0 401.0,240.0 409.8,240.0 C 418.6,240.0 427.4,240.0 436.2,240.0 C 445.0,240.0 453.8,240.0 462.6,240.0 C 471.4,233.7 480.2,219.0 489.0,202.2 C 497.8,185.3 506.6,144.3 515.4,139.1 C 524.3,133.8 533.1,167.5 541.9,170.6 C 550.7,173.8 559.5,146.4 568.3,158.0 C 577.1,169.6 585.9,226.3 594.7,240.0 C 603.5,240.0 612.3,240.0 621.1,240.0 C 629.9,231.6 638.7,196.9 647.5,189.5 C 656.3,182.2 665.1,195.8 673.9,195.8 C 682.7,195.8 691.5,185.3 700.3,189.5 C 709.1,193.7 718.0,240.0 726.8,221.1 C 735.6,202.2 744.4,72.8 753.2,76.0 C 762.0,79.2 770.8,212.7 779.6,240.0 C 788.4,240.0 801.6,240.0 806.0,240.0 L 806.0,240 L 40.0,240 Z" fill="url(#fade)"/>
    <path class="l" d="M 40.0,240.0 C 44.4,240.0 57.6,240.0 66.4,240.0 C 75.2,235.8 84.0,217.9 92.8,214.8 C 101.6,211.6 110.4,223.2 119.2,221.1 C 128.0,219.0 136.9,212.7 145.7,202.2 C 154.5,191.6 163.3,159.1 172.1,158.0 C 180.9,156.9 189.7,182.2 198.5,195.8 C 207.3,209.5 216.1,232.6 224.9,240.0 C 233.7,240.0 242.5,240.0 251.3,240.0 C 260.1,229.5 268.9,186.4 277.7,176.9 C 286.5,167.5 295.3,176.9 304.1,183.2 C 312.9,189.5 321.7,223.2 330.6,214.8 C 339.4,206.4 348.2,128.6 357.0,132.8 C 365.8,137.0 374.6,222.1 383.4,240.0 C 392.2,240.0 401.0,240.0 409.8,240.0 C 418.6,240.0 427.4,240.0 436.2,240.0 C 445.0,240.0 453.8,240.0 462.6,240.0 C 471.4,233.7 480.2,219.0 489.0,202.2 C 497.8,185.3 506.6,144.3 515.4,139.1 C 524.3,133.8 533.1,167.5 541.9,170.6 C 550.7,173.8 559.5,146.4 568.3,158.0 C 577.1,169.6 585.9,226.3 594.7,240.0 C 603.5,240.0 612.3,240.0 621.1,240.0 C 629.9,231.6 638.7,196.9 647.5,189.5 C 656.3,182.2 665.1,195.8 673.9,195.8 C 682.7,195.8 691.5,185.3 700.3,189.5 C 709.1,193.7 718.0,240.0 726.8,221.1 C 735.6,202.2 744.4,72.8 753.2,76.0 C 762.0,79.2 770.8,212.7 779.6,240.0 C 788.4,240.0 801.6,240.0 806.0,240.0" fill="none" stroke="url(#accent)" stroke-width="2.5"
      stroke-linejoin="round" stroke-linecap="round"/>
    <circle class="d" cx="40.0" cy="240.0" r="2.5" fill="#39d353"/><circle class="d" cx="66.4" cy="240.0" r="2.5" fill="#39d353"/><circle class="d" cx="92.8" cy="214.8" r="2.5" fill="#39d353"/><circle class="d" cx="119.2" cy="221.1" r="2.5" fill="#39d353"/><circle class="d" cx="145.7" cy="202.2" r="2.5" fill="#39d353"/><circle class="d" cx="172.1" cy="158.0" r="2.5" fill="#39d353"/><circle class="d" cx="198.5" cy="195.8" r="2.5" fill="#39d353"/><circle class="d" cx="224.9" cy="240.0" r="2.5" fill="#39d353"/><circle class="d" cx="251.3" cy="240.0" r="2.5" fill="#39d353"/><circle class="d" cx="277.7" cy="176.9" r="2.5" fill="#39d353"/><circle class="d" cx="304.1" cy="183.2" r="2.5" fill="#39d353"/><circle class="d" cx="330.6" cy="214.8" r="2.5" fill="#39d353"/><circle class="d" cx="357.0" cy="132.8" r="2.5" fill="#39d353"/><circle class="d" cx="383.4" cy="240.0" r="2.5" fill="#39d353"/><circle class="d" cx="409.8" cy="240.0" r="2.5" fill="#39d353"/><circle class="d" cx="436.2" cy="240.0" r="2.5" fill="#39d353"/><circle class="d" cx="462.6" cy="240.0" r="2.5" fill="#39d353"/><circle class="d" cx="489.0" cy="202.2" r="2.5" fill="#39d353"/><circle class="d" cx="515.4" cy="139.1" r="2.5" fill="#39d353"/><circle class="d" cx="541.9" cy="170.6" r="2.5" fill="#39d353"/><circle class="d" cx="568.3" cy="158.0" r="2.5" fill="#39d353"/><circle class="d" cx="594.7" cy="240.0" r="2.5" fill="#39d353"/><circle class="d" cx="621.1" cy="240.0" r="2.5" fill="#39d353"/><circle class="d" cx="647.5" cy="189.5" r="2.5" fill="#39d353"/><circle class="d" cx="673.9" cy="195.8" r="2.5" fill="#39d353"/><circle class="d" cx="700.3" cy="189.5" r="2.5" fill="#39d353"/><circle class="d" cx="726.8" cy="221.1" r="2.5" fill="#39d353"/><circle class="d" cx="753.2" cy="76.0" r="2.5" fill="#39d353"/><circle class="d" cx="779.6" cy="240.0" r="2.5" fill="#39d353"/>
    <circle class="ping" cx="806.0" cy="240.0" r="6" fill="none" stroke="#39d353" stroke-width="1.5"/>
    <circle class="dot" cx="806.0" cy="240.0" r="4" fill="#39d353" stroke="#16161e" stroke-width="2"/>
    <text x="40.0" y="260" fill="#626880" font-size="9" text-anchor="middle">20</text><text x="66.4" y="260" fill="#626880" font-size="9" text-anchor="middle">21</text><text x="92.8" y="260" fill="#626880" font-size="9" text-anchor="middle">22</text><text x="119.2" y="260" fill="#626880" font-size="9" text-anchor="middle">23</text><text x="145.7" y="260" fill="#626880" font-size="9" text-anchor="middle">24</text><text x="172.1" y="260" fill="#626880" font-size="9" text-anchor="middle">25</text><text x="198.5" y="260" fill="#626880" font-size="9" text-anchor="middle">26</text><text x="224.9" y="260" fill="#626880" font-size="9" text-anchor="middle">27</text><text x="251.3" y="260" fill="#626880" font-size="9" text-anchor="middle">28</text><text x="277.7" y="260" fill="#626880" font-size="9" text-anchor="middle">29</text><text x="304.1" y="260" fill="#626880" font-size="9" text-anchor="middle">30</text><text x="330.6" y="260" fill="#626880" font-size="9" text-anchor="middle">1</text><text x="357.0" y="260" fill="#626880" font-size="9" text-anchor="middle">2</text><text x="383.4" y="260" fill="#626880" font-size="9" text-anchor="middle">3</text><text x="409.8" y="260" fill="#626880" font-size="9" text-anchor="middle">4</text><text x="436.2" y="260" fill="#626880" font-size="9" text-anchor="middle">5</text><text x="462.6" y="260" fill="#626880" font-size="9" text-anchor="middle">6</text><text x="489.0" y="260" fill="#626880" font-size="9" text-anchor="middle">7</text><text x="515.4" y="260" fill="#626880" font-size="9" text-anchor="middle">8</text><text x="541.9" y="260" fill="#626880" font-size="9" text-anchor="middle">9</text><text x="568.3" y="260" fill="#626880" font-size="9" text-anchor="middle">10</text><text x="594.7" y="260" fill="#626880" font-size="9" text-anchor="middle">11</text><text x="621.1" y="260" fill="#626880" font-size="9" text-anchor="middle">12</text><text x="647.5" y="260" fill="#626880" font-size="9" text-anchor="middle">13</text><text x="673.9" y="260" fill="#626880" font-size="9" text-anchor="middle">14</text><text x="700.3" y="260" fill="#626880" font-size="9" text-anchor="middle">15</text><text x="726.8" y="260" fill="#626880" font-size="9" text-anchor="middle">16</text><text x="753.2" y="260" fill="#626880" font-size="9" text-anchor="middle">17</text><text x="779.6" y="260" fill="#626880" font-size="9" text-anchor="middle">18</text><text x="806.0" y="260" fill="#626880" font-size="9" text-anchor="middle">19</text>
  </g>
</svg>
