<svg xmlns="http://www.w3.org/2000/svg" width="120" height="40" viewBox="0 0 120 40" role="img" aria-label="LinkedIn">
  <rect x="0.5" y="0.5" width="119" height="39" rx="10" fill="#ffffff" stroke="#e2e6f0"/>
  <g transform="translate(16, 11.0) scale(0.75)">
    <path d="M20.447 20.452h-3.554v-5.569c0-1.328-.027-3.037-1.852-3.037-1.853 0-2.136 1.445-2.136 2.939v5.667H9.351V9h3.414v1.561h.046c.477-.9 1.637-1.85 3.37-1.85 3.601 0 4.267 2.37 4.267 5.455v6.286zM5.337 7.433c-1.144 0-2.063-.926-2.063-2.065 0-1.138.92-2.063 2.063-2.063 1.14 0 2.064.925 2.064 2.063 0 1.139-.925 2.065-2.064 2.065zm1.782 13.019H3.555V9h3.564v11.452zM22.225 0H1.771C.792 0 0 .774 0 1.729v20.542C0 23.227.792 24 1.771 24h20.451C23.2 24 24 23.227 24 22.271V1.729C24 .774 23.2 0 22.225 0z" fill="#0A66C2"/>
  </g>
  <text x="43" y="25.0" font-family="'Segoe UI', Ubuntu, Helvetica, Arial, sans-serif" font-size="13.5" font-weight="600" fill="#1a1f36">LinkedIn</text>
</svg>
