<svg xmlns="http://www.w3.org/2000/svg" width="846" height="232" viewBox="0 0 846 232" role="img" aria-label="Rahul Tayal: 2,032 contributions in the last year">
  <defs>
    <linearGradient id="accent" x1="0" y1="0" x2="1" y2="0">
      <stop offset="0%" stop-color="#2563eb"/>
      <stop offset="100%" stop-color="#7c3aed"/>
    </linearGradient>
    <linearGradient id="fade" x1="0" y1="0" x2="0" y2="1">
      <stop offset="0%" stop-color="#2563eb" stop-opacity="0.30"/>
      <stop offset="100%" stop-color="#7c3aed" stop-opacity="0"/>
    </linearGradient>
    <linearGradient id="hero" x1="32" y1="0" x2="300" y2="0" gradientUnits="userSpaceOnUse">
      <stop offset="0%" stop-color="#2563eb"/>
      <stop offset="100%" stop-color="#7c3aed"/>
    </linearGradient>
  </defs>
  <rect x="0.5" y="0.5" width="845" height="231" rx="10" fill="#ffffff" stroke="#e2e6f0"/>
  <g font-family="'Segoe UI', Ubuntu, Helvetica, Arial, sans-serif">
    <text x="32" y="44" fill="#8a91ab" font-size="10" font-weight="600" letter-spacing="1.5">CONTRIBUTIONS · LAST 12 MONTHS</text>
    <text x="32" y="92" fill="url(#hero)" font-size="42" font-weight="700" style="font-variant-numeric: tabular-nums">2,032</text>
    
    <style>
      .line { stroke-dasharray: 859; stroke-dashoffset: 859;
        animation: draw 2.4s ease-out forwards; }
      .area { opacity: 0; animation: rise 1s ease-out 1.5s forwards; }
      .dot { opacity: 0; animation: pop 0.4s ease-out 2.3s forwards; }
      .ping { transform-origin: 480.0px 120.3px;
        animation: ping 2s ease-out 2.8s infinite; opacity: 0; }
      @keyframes draw { to { stroke-dashoffset: 0; } }
      @keyframes rise { to { opacity: 1; } }
      @keyframes pop { to { opacity: 1; } }
      @keyframes ping {
        0% { opacity: 0.7; transform: scale(0.4); }
        70% { opacity: 0; transform: scale(2.4); }
        100% { opacity: 0; transform: scale(2.4); }
      }
      @media (prefers-reduced-motion: reduce) {
        .line { stroke-dasharray: none; stroke-dashoffset: 0; animation: none; }
        .area, .dot { opacity: 1; animation: none; }
        .ping { animation: none; opacity: 0; }
      }
    </style>
    <polygon class="area" points="32,168 32.0,133.0 40.6,151.7 49.2,148.7 57.8,168.0 66.5,157.7 75.1,114.8 83.7,136.6 92.3,133.6 100.9,148.7 109.5,138.4 118.2,136.6 126.8,146.2 135.4,151.7 144.0,163.2 152.6,122.7 161.2,110.0 169.8,138.4 178.5,145.0 187.1,168.0 195.7,156.5 204.3,124.5 212.9,131.1 221.5,151.1 230.2,155.9 238.8,144.4 247.4,148.7 256.0,125.7 264.6,145.0 273.2,140.2 281.8,146.2 290.5,146.9 299.1,134.8 307.7,154.7 316.3,146.2 324.9,132.4 333.5,156.5 342.2,149.3 350.8,133.6 359.4,147.5 368.0,151.1 376.6,168.0 385.2,163.8 393.8,166.2 402.5,162.0 411.1,149.9 419.7,165.6 428.3,146.9 436.9,130.5 445.5,148.1 454.2,143.8 462.8,140.2 471.4,136.0 480.0,120.3 480,168" fill="url(#fade)"/>
    <polyline class="line" points="32.0,133.0 40.6,151.7 49.2,148.7 57.8,168.0 66.5,157.7 75.1,114.8 83.7,136.6 92.3,133.6 100.9,148.7 109.5,138.4 118.2,136.6 126.8,146.2 135.4,151.7 144.0,163.2 152.6,122.7 161.2,110.0 169.8,138.4 178.5,145.0 187.1,168.0 195.7,156.5 204.3,124.5 212.9,131.1 221.5,151.1 230.2,155.9 238.8,144.4 247.4,148.7 256.0,125.7 264.6,145.0 273.2,140.2 281.8,146.2 290.5,146.9 299.1,134.8 307.7,154.7 316.3,146.2 324.9,132.4 333.5,156.5 342.2,149.3 350.8,133.6 359.4,147.5 368.0,151.1 376.6,168.0 385.2,163.8 393.8,166.2 402.5,162.0 411.1,149.9 419.7,165.6 428.3,146.9 436.9,130.5 445.5,148.1 454.2,143.8 462.8,140.2 471.4,136.0 480.0,120.3" fill="none" stroke="url(#accent)" stroke-width="2"
      stroke-linejoin="round" stroke-linecap="round"/>
    <circle class="ping" cx="480.0" cy="120.3" r="6" fill="none" stroke="#7c3aed" stroke-width="1.5"/>
    <circle class="dot" cx="480.0" cy="120.3" r="3.5" fill="#7c3aed" stroke="#ffffff" stroke-width="2"/>
    <line x1="524" y1="36" x2="524" y2="196" stroke="#e2e6f0"/>
    <text x="560" y="44" fill="#8a91ab" font-size="10" font-weight="600" letter-spacing="1.5">LAST YEAR · PUBLIC</text>
    <text x="560" y="96" fill="#8a91ab" font-size="10" font-weight="600" letter-spacing="1">PULL REQUESTS</text><text x="814" y="96" fill="#1a1f36" font-size="20" font-weight="600" text-anchor="end" style="font-variant-numeric: tabular-nums">0</text><text x="560" y="136" fill="#8a91ab" font-size="10" font-weight="600" letter-spacing="1">ISSUES</text><text x="814" y="136" fill="#1a1f36" font-size="20" font-weight="600" text-anchor="end" style="font-variant-numeric: tabular-nums">3</text><text x="560" y="176" fill="#8a91ab" font-size="10" font-weight="600" letter-spacing="1">REPOS</text><text x="814" y="176" fill="#1a1f36" font-size="20" font-weight="600" text-anchor="end" style="font-variant-numeric: tabular-nums">1</text>
    <clipPath id="strip"><rect x="32" y="196" width="300" height="6" rx="3"/></clipPath><g clip-path="url(#strip)"><rect x="32.0" y="196" width="300.0" height="6" fill="#3572A5"/></g><circle cx="348" cy="199" r="4" fill="#3572A5"/><text x="358" y="203" fill="#5b6178" font-size="11">Python 100%</text>
  </g>
</svg>
